<?xml version="1.0" standalone="no"?>
<!DOCTYPE svg PUBLIC "-//W3C//DTD SVG 20010904//EN"
 "http://www.w3.org/TR/2001/REC-SVG-20010904/DTD/svg10.dtd">
<svg version="1.0" xmlns="http://www.w3.org/2000/svg"
 width="206.000000pt" height="206.000000pt" viewBox="0 0 206.000000 206.000000"
 preserveAspectRatio="xMidYMid meet">
<metadata>
Created by potrace 1.14, written by Peter Selinger 2001-2017
</metadata>
<g transform="translate(0.000000,206.000000) scale(0.100000,-0.100000)"
fill="#000000" stroke="none">
<path d="M1574 2002 c-5 -4 -9 -14 -9 -22 1 -8 -1 -19 -4 -25 -3 -5 -6 -17 -8
-25 -2 -15 -11 -70 -12 -80 -1 -3 -31 -6 -69 -6 -56 -1 -107 -8 -107 -14 0 -1
-8 -3 -18 -5 -27 -5 -108 -55 -114 -71 -3 -8 -9 -12 -13 -9 -5 3 -11 -4 -15
-15 -3 -11 -10 -20 -15 -20 -18 0 -65 -101 -77 -165 -11 -59 -5 -175 9 -175 4
0 8 -8 8 -18 0 -25 56 -110 98 -149 61 -56 157 -95 242 -98 77 -3 230 50 230
79 0 5 3 7 6 3 9 -9 94 86 94 106 0 9 4 17 9 17 17 0 31 58 40 160 6 70 7 74
31 75 43 3 130 26 137 38 4 6 0 8 -10 4 -10 -3 -17 -3 -17 1 0 8 -103 7 -124
-1 -19 -8 -29 3 -51 53 -26 59 -108 140 -172 170 l-51 25 1 83 c0 86 -2 96
-19 84z"/>
<path d="M530 1796 c-5 -5 -10 -7 -10 -3 0 3 -18 0 -40 -8 -22 -8 -40 -11 -40
-7 0 4 -4 2 -8 -3 -4 -6 -26 -24 -49 -41 -24 -17 -40 -34 -36 -37 3 -4 0 -7
-9 -7 -8 0 -29 -29 -48 -66 -27 -54 -33 -77 -33 -132 0 -87 4 -108 30 -162 31
-62 88 -119 148 -146 51 -24 69 -28 165 -39 30 -4 62 -11 70 -15 8 -5 57 -52
108 -104 52 -53 98 -96 102 -96 5 0 12 -9 15 -20 3 -11 13 -20 21 -20 8 0 14
-4 14 -8 0 -4 45 -54 101 -109 83 -83 99 -104 92 -119 -5 -11 -8 -44 -8 -75 1
-40 -3 -56 -12 -56 -7 0 -13 4 -13 8 0 5 -137 145 -305 313 l-305 304 -68 -66
c-42 -42 -67 -74 -65 -85 1 -11 146 -163 322 -338 l319 -319 63 59 c35 33 66
58 68 55 3 -3 7 -16 9 -31 11 -82 85 -174 179 -219 69 -34 187 -40 241 -12 18
9 29 12 25 5 -3 -7 3 -4 14 5 11 10 23 18 27 18 29 0 137 139 138 177 0 4 3
13 7 18 10 12 8 139 -2 173 -11 42 -55 106 -110 162 -76 78 -164 160 -171 160
-3 0 -19 12 -35 28 -16 15 -41 36 -55 47 -15 11 -37 29 -51 40 -13 11 -33 27
-46 35 -12 8 -34 25 -49 38 -15 12 -32 22 -38 22 -6 0 -16 14 -24 30 -7 17
-16 30 -20 30 -5 0 -8 6 -8 12 0 24 -231 388 -252 396 -4 2 -8 8 -8 13 0 25
-117 139 -172 167 -60 31 -169 47 -188 28z m645 -676 c-2 -31 -23 -151 -28
-156 -5 -5 -77 67 -77 77 0 5 -5 9 -10 9 -11 0 -69 60 -70 72 0 4 26 8 58 10
105 5 127 3 127 -12z"/>
<path d="M240 875 c0 -8 -6 -20 -14 -27 -8 -8 -28 -40 -46 -71 -32 -57 -34
-97 -4 -97 8 0 13 -3 12 -7 -4 -10 480 -493 493 -493 6 0 8 -4 5 -9 -12 -19
27 -20 52 -2 15 10 37 22 50 25 12 4 22 11 22 14 0 4 16 16 35 26 19 11 35 24
35 29 0 15 -608 621 -625 623 -8 1 -15 -4 -15 -11z"/>
<path d="M81 573 c0 -10 -5 -38 -11 -63 -19 -72 -20 -82 -21 -150 0 -36 6 -87
14 -113 16 -51 74 -136 93 -137 6 0 17 -7 24 -15 7 -9 18 -14 24 -12 6 2 17
-2 24 -10 8 -7 18 -11 23 -8 5 4 15 3 22 -2 17 -11 150 -11 165 0 6 5 12 7 12
4 0 -3 17 -1 38 4 20 5 45 12 56 14 10 2 21 7 24 9 8 8 -52 74 -67 75 -8 1
-12 3 -9 6 7 7 -125 142 -134 137 -5 -2 -8 1 -8 6 0 7 -153 163 -255 260 -11
10 -14 9 -14 -5z"/>
</g>
</svg>
