<?xml version="1.0" encoding="iso-8859-1"?>
<!-- Generator: Adobe Illustrator 21.0.0, SVG Export Plug-In . SVG Version: 6.00 Build 0)  -->
<svg version="1.1" id="Layer_1" xmlns="http://www.w3.org/2000/svg" xmlns:xlink="http://www.w3.org/1999/xlink" x="0px" y="0px"
	 viewBox="0 0 100.353 100.353" style="enable-background:new 0 0 100.353 100.353;" xml:space="preserve">
<g>
	<path d="M89.381,19.52h-78.76c-3.983,0-7.224,3.241-7.224,7.224v4.828v10.404v31.281c0,3.983,3.241,7.223,7.224,7.223h78.76
		c3.983,0,7.223-3.24,7.223-7.223V41.976V31.572v-4.828C96.604,22.761,93.364,19.52,89.381,19.52z M10.62,22.52h78.76
		c2.329,0,4.223,1.895,4.223,4.224v3.328H6.396v-3.328C6.397,24.414,8.291,22.52,10.62,22.52z M93.604,40.475H6.397v-7.404h87.207
		V40.475z M89.381,77.479h-78.76c-2.329,0-4.224-1.895-4.224-4.223V43.475h87.207v29.781C93.604,75.584,91.709,77.479,89.381,77.479
		z"/>
	<path d="M17.894,61.108c-2.883,0-5.229,2.347-5.229,5.231c0,2.882,2.346,5.227,5.229,5.227c2.885,0,5.231-2.345,5.231-5.227
		C23.125,63.455,20.779,61.108,17.894,61.108z M17.894,68.566c-1.229,0-2.229-0.999-2.229-2.227c0-1.23,1-2.231,2.229-2.231
		c1.23,0,2.231,1.001,2.231,2.231C20.125,67.567,19.124,68.566,17.894,68.566z"/>
	<path d="M71.344,65.015H29.08c-0.829,0-1.5,0.671-1.5,1.5s0.671,1.5,1.5,1.5h42.264c0.829,0,1.5-0.671,1.5-1.5
		C72.844,65.686,72.173,65.015,71.344,65.015z"/>
</g>
</svg>
